<?xml version="1.0" encoding="utf-8"?>
<!-- Generator: Adobe Illustrator 21.1.0, SVG Export Plug-In . SVG Version: 6.00 Build 0)  -->
<svg version="1.1" id="Layer_1" xmlns="http://www.w3.org/2000/svg" xmlns:xlink="http://www.w3.org/1999/xlink" x="0px" y="0px"
	 viewBox="0 0 491.1 162" style="enable-background:new 0 0 491.1 162;" xml:space="preserve">
<style type="text/css">
	.st0{fill-rule:evenodd;clip-rule:evenodd;fill:#CDCDCD;}
</style>
<path class="st0" d="M251.6,161.9c0-53.7,0-107.3,0-160.9c0.5,0,0.9-0.1,1.2-0.1c12.7,0,25.3-0.1,38,0.1c5.3,0.1,10.6,0.6,15.9,0.9
	c5.2,0.3,10.4,0.5,15.5,0.8c13,0.9,23.9,6,31.8,16.7c3.8,5.2,5.8,11.2,6.7,17.6c0.9,6.8,0.5,13.5-1.5,20.1c-2,6.7-5.9,12-11.2,16.4
	c-2.4,2-5,3.7-7.5,5.6c2,1.1,4.1,2.2,6.1,3.5c9.6,6,15,14.9,16.9,25.9c1.7,10.1,0.6,19.9-4.2,29c-5.6,10.7-14.6,17.5-26,21.2
	c-9.2,3-18.6,3.7-28.2,3.4c-1.3,0-2.6,0-3.8,0c-16,0-32.1,0-48.1,0C252.6,161.9,252.1,161.9,251.6,161.9z M281.6,138.7
	c0.6,0,1.1,0,1.5,0c8.9-0.2,17.9-0.5,26.8-0.8c1.8-0.1,3.5-0.3,5.2-0.7c6.6-1.8,11.7-5.5,14.3-12c2.4-6,2.2-12.2,0.5-18.4
	c-2.4-9-8.5-13.6-17.3-14.8c-4.1-0.5-8.4-0.6-12.6-0.7c-5.9-0.1-11.8-0.1-17.7-0.1c-0.2,0-0.5,0-0.7,0.1
	C281.6,107.1,281.6,122.8,281.6,138.7z M281.7,25.7c0,13.6,0,27,0,40.8c9.9-0.2,19.8-0.2,29.6-0.5c3.9-0.1,7.6-1.5,10.7-4.2
	c7.7-6.7,9.2-19.8,3.2-28.2c-3.8-5.3-9.4-7.1-15.4-7.5c-6.4-0.4-12.8-0.2-19.3-0.3C287.6,25.7,284.7,25.7,281.7,25.7z"/>
<path class="st0" d="M239,1.3c0,53.5,0,106.9,0,160.5c-0.4,0-0.8,0-1.2,0c-20.8,0-41.5,0.1-62.3,0c-11-0.1-21.5-2.6-30.7-8.9
	c-10.2-7-16.3-16.7-18-28.9c-1-7.2-0.6-14.3,1.6-21.2c2.8-8.9,8.4-15.6,16.5-20.3c1.7-1,3.5-2,5.4-3.1c-1.6-1.1-3-2.1-4.5-3
	c-9.1-5.9-14.1-14.3-15.7-24.8c-1.2-7.9-0.8-15.8,2.1-23.2c4.9-12.5,14.1-20.3,27.1-23.7c5.6-1.5,11.2-2.1,16.9-2.2
	c6.6-0.2,13.3-0.4,19.9-0.5c6.3-0.1,12.6-0.3,18.9-0.4c7.7-0.1,15.4-0.1,23.1-0.1C238.3,1.2,238.6,1.3,239,1.3z M208.9,137.9
	c0-16,0-31.7,0-47.5c-0.4,0-0.7,0-0.9,0c-7.9,0.1-15.7,0-23.6,0.3c-3.5,0.1-7,0.6-10.3,1.5c-5.8,1.5-10,5.1-12.3,10.6
	c-2.2,5.2-2.7,10.6-2,16.2c1.2,8.5,6.1,13.9,13.9,17c4.3,1.7,8.9,1.6,13.4,1.8c6,0.2,12.1,0.1,18.2,0.2
	C206.4,137.9,207.6,137.9,208.9,137.9z M208.9,26.1c-0.6,0-1.1,0-1.6,0c-6.7,0-13.4-0.1-20,0c-3.4,0.1-6.8,0.3-10.1,0.9
	c-7.7,1.3-12.8,5.7-14.8,13.3c-1.4,5.4-1,10.7,1.7,15.8c3.4,6.4,8.6,10.2,16,10.4c9.2,0.2,18.4,0.1,27.6,0.2c0.4,0,0.9,0,1.3,0
	C208.9,53.1,208.9,39.7,208.9,26.1z"/>
<path class="st0" d="M358.6,161.8c14.8-53.6,29.6-107.1,44.3-160.6c13.5,0,27.1,0,40.6,0c15.8,53.5,31.6,107,47.5,160.7
	c-10.6,0-21,0-31.6,0c-3.6-13.6-7.3-27.4-10.9-41.1c-0.5,0-0.8,0-1.2,0c-15.9,0-31.8,0-47.7,0c-0.9,0-1.3,0.2-1.6,1.2
	c-3.2,13-6.5,26.1-9.8,39.1c-0.2,0.6-0.3,0.9-1,0.9c-9.4,0-18.8,0-28.2,0C359,161.9,358.9,161.8,358.6,161.8z M422.8,24.7
	c-0.1,0-0.2,0-0.3,0c-6,24-12,48-18,72.2c12.4,0,24.7,0,37,0C435.2,72.7,429,48.7,422.8,24.7z"/>
<path class="st0" d="M0,161.7C14.8,108.1,29.6,54.6,44.5,1c13.6,0,27,0,40.5,0c15.9,53.5,31.8,107,47.7,160.7c-0.5,0-1,0.1-1.4,0.1
	c-9.5,0-19,0-28.6,0c-1.1,0-1.5-0.3-1.7-1.3c-3.5-12.8-7-25.6-10.4-38.4c-0.3-1-0.7-1.3-1.7-1.3c-15.8,0-31.7,0-47.5,0
	c-1.2,0-1.5,0.4-1.8,1.5c-3.2,12.9-6.4,25.8-9.6,38.7c-0.2,0.6-0.4,1-1.1,1c-9.4,0-18.8,0-28.2,0C0.4,161.8,0.3,161.7,0,161.7z
	 M83,96.9c-6.3-24.1-12.6-48.2-18.8-72.3c-0.1,0-0.2,0-0.4,0c-6,24.1-12,48.1-18,72.2C58.3,96.9,70.6,96.9,83,96.9z"/>
</svg>
