<svg id="Layer_1" data-name="Layer 1" xmlns="http://www.w3.org/2000/svg" xmlns:xlink="http://www.w3.org/1999/xlink" viewBox="0 0 389.82 65.73"><defs><style>.cls-1{fill:none;}.cls-2{fill:#cdcdd0;}.cls-3{clip-path:url(#clip-path);}</style><clipPath id="clip-path" transform="translate(0 0)"><path class="cls-1" d="M-439.88,152.52V-87.33c0-13.81,10.26-23.78,23.8-23.78a24.76,24.76,0,0,1-24.51-25l-.06-67.44a10.84,10.84,0,0,1,10.72-10.95H152.91c24.58,0,44.5,20.32,44.5,45.39V175c0,11.33-9,22.94-20.12,22.94H-395.39c-24.59,0-44.5-26.77-44.5-45.38"/></clipPath></defs><title>logo-barclays</title><g id="g6604"><path id="path21" class="cls-2" d="M388.52,19a13.4,13.4,0,0,0-11.47-6.65c-4.3,0-8.07,1.76-8.07,6.32,0,3.84,4.76,6.45,9.71,9.64,5.4,3.39,11,7.55,11,14.79,0,9.45-9.18,15.24-19.8,15.24a39.07,39.07,0,0,1-14.07-2.8l.84-12.57c2.48,5,7.1,9,13.94,9,5.28,0,9.18-2.54,9.18-7,0-3.78-3.19-6.12-7.1-8.47-8.21-4.95-13.42-8.93-13.42-16.09,0-10.75,9-14.33,18.3-14.33,5.4,0,8.79,1,12.24,1L388.52,19M343,30.23c-1.18,2-2.67,4.62-3.59,6.58a72.34,72.34,0,0,0-1.17,14.13c0,2.28.39,5.34,1.43,6.38H326.06c2.41-2.28,3.39-16.28,3.26-20.71a107.37,107.37,0,0,0-8.08-19.74c-2.4-4.62-5.21-9-7-9.84,3.06-.26,7-.45,8.86-.45,3.38,0,4.3.45,6.39,5,3.25,7.36,5.66,12.89,7.1,17,3.45-5.41,5.86-9.12,9-14.2a8.46,8.46,0,0,0,1.43-4.3A5.21,5.21,0,0,0,346.32,7H359.8c-2.61.59-14.33,19-16.81,23.19M295.64,18.84l-8.07,17.52h13.15l-5.08-17.52m15.83,38.94c-4.3,0-4.62-.13-8.08-12l-1.24-4.36c-2.08,1-5.8,1.43-11.72,1.43h-6l-1,2.21c-1.5,3.33-3.52,7.23-3.52,10a7.93,7.93,0,0,0,.33,2.28H244.64c2-2.28,2.67-9.64,3.65-23l.19-3.19c.52-7.62.92-13.48.85-17.58C249.27,10.18,248.94,8,248,7h13.75c-2,1.5-2.67,9.57-3.58,22.93l-.26,3.19c-.33,5-1,10-1,15,0,2.28.91,2.8,3.26,2.8,8.33,0,10.42-.19,14.2-2.74,2.34-4.3,5-9.71,7.62-15.31l3.52-7.49c3.32-7,6.57-14.2,6.57-15.57a7.1,7.1,0,0,0-.65-2.8h10.94s4.43,16.42,5.41,19.93L310,34.92c3.71,13.35,6.06,19.87,9.19,22.41-2.61.33-6.32.45-7.69.45m-88.64.52c-13,0-20.45-10.68-20.45-22.67,0-16.67,9.05-29.57,26.31-29.57,5.41,0,7.95,1,12.31,1l-1.3,12.83c-2.48-4.49-6.52-7.56-11.92-7.56-10.75,0-15.11,11.6-15.11,21.56,0,10.81,6.06,16.74,14.13,16.74,4.36,0,8.21-1.17,14.66-5.67-2.61,8.34-8.66,13.35-18.63,13.35M177.89,13.17a38.62,38.62,0,0,0-3.91.13c-.39,2.15-.72,5.86-1.17,11.85l-.26,3.52a12.29,12.29,0,0,0,2.28.2c6.25,0,10.55-3.78,10.55-9.51,0-3.91-2.74-6.19-7.49-6.19m18.17,46.31c-3.71,0-4.62-.59-5.86-2.28L176.12,37.66c-1.11-1.5-2-2.74-3.71-2.74h-.33l-.26,3.78c-.33,5.15-.52,9.25-.52,12.31.06,3.39.46,5.47,1.37,6.32H159.06c2-1.76,2.67-7.62,3.78-23l.2-3.19c.52-7.55.91-13.42.85-17.52-.07-3.58-.45-5.8-1.43-6.58H181c6.06,0,14.39,1,14.39,10.88,0,8.07-5.41,12.51-12.11,14.59a32.38,32.38,0,0,1,2.54,3l10.22,13.55c6.38,8.4,6.9,8.79,9.19,10-2.87.32-6.71.46-9.19.46M132.62,18.84l-8.15,17.52h13.22l-5.07-17.52m15.82,38.94c-4.3,0-4.62-.13-8.07-12l-1.24-4.36c-2.09,1-5.8,1.43-11.73,1.43h-6l-1,2.21c-1,2.35-3.58,7.17-3.52,10a8.22,8.22,0,0,0,.33,2.28h-12c3.45-3.45,7.82-11.46,13.87-24.42l3.52-7.49c3.19-6.77,6.58-14.46,6.58-15.57a7,7,0,0,0-.65-2.8h10.95s2.86,10.88,5.4,19.93l2.15,7.95c3.71,13.35,6.06,19.86,9.18,22.41-2.8.32-6.32.45-7.69.45m-62-44.68a33.72,33.72,0,0,0-3.52.13c-.52,3.52-.85,6.9-1.11,10.61,0,0-.2,3.19-.2,3.06h1.3c6.38,0,12.25-2.21,12.25-8.07,0-3.39-2.8-5.73-8.73-5.73M84.81,33H81.23l-.52,7.42c-.26,3.26-.39,6-.46,9.25,0,.46,1.43,1.43,4.82,1.43,7,0,11.66-3.52,11.66-9.32,0-6.45-5.28-8.79-11.92-8.79m.78,24.29H68c2.22-2,2.8-9.58,3.78-23L72,31.21c.52-7.62.91-13.48.85-17.58-.06-3.52-.46-5.8-1.43-6.58H91.06c4.69,0,14.07.26,14.07,10,0,6.51-6.06,10.55-11.59,12,7.82.78,13.68,4.56,13.68,12.63,0,8.73-8.21,15.63-21.62,15.63" transform="translate(0 0)"/><g class="cls-3"><path id="path4050" class="cls-2" d="M28.42,0c-1.74,0-2.1.3-2.67.93l-.7,0A8.1,8.1,0,0,0,20.53,2.1C19.11,3,18.43,4.69,19.19,5.9c0,0,.51-.74,2.17-.74.23,0,.49,0,.77,0,2.3.27,4,1.48,3.8,4.69s-1.38,6.77-6.29,6.81c0,0-.63,0-1.31-.06a3.71,3.71,0,0,1-3-1.68,3,3,0,0,0,2-3c0-1.7-1.5-3.27-3.64-3.9a8.13,8.13,0,0,0-2.27-.31,9.15,9.15,0,0,0-7.27,3.55C-.2,17-.56,25.34.5,33.1s6,15,6.14,15.18.2.21.31.21a.27.27,0,0,0,.17-.07,26.22,26.22,0,0,0,5-6.78c.93.74.44,2.32-.07,4A25.66,25.66,0,0,1,10,50.38c-.41.72-1,1.56-.22,2a.54.54,0,0,0,.29.07c1,0,3.2-1.66,5.71-5A38.62,38.62,0,0,0,20,40.34c.21,0,.55.39.49,1.34a23.71,23.71,0,0,1-3,7.87,45.39,45.39,0,0,1-4.1,5.88c-.22.27,0,.45.11.56a48.1,48.1,0,0,0,8.58,6c5.92,3.16,8.55,3.72,8.55,3.72s2.62-.55,8.54-3.71A46.26,46.26,0,0,0,47.79,56a.34.34,0,0,0,.11-.56,45.84,45.84,0,0,1-4.09-5.87,23.29,23.29,0,0,1-3-7.86c0-1,.28-1.27.48-1.35a38.48,38.48,0,0,0,4.25,7.1c2.52,3.35,4.75,5,5.71,5a.58.58,0,0,0,.3-.07c.72-.44.18-1.29-.24-2a29.22,29.22,0,0,1-2.1-4.74c-.49-1.7-1-3.28,0-4a25.56,25.56,0,0,0,5,6.77.26.26,0,0,0,.18.09.38.38,0,0,0,.28-.2c.16-.21,5.1-7.4,6.15-15.19s.71-16.1-3.63-21.83a9.15,9.15,0,0,0-7.3-3.57,8.16,8.16,0,0,0-2.25.3C45.51,8.65,44,10.23,44,11.91a3,3,0,0,0,2,3,3.7,3.7,0,0,1-3,1.68,10.5,10.5,0,0,1-1.28.08,5.24,5.24,0,0,1-4.66-2.52c-1.34-1.88-1.3-5.75-1.37-7S35.34,2.92,34,1.72A7.65,7.65,0,0,0,28.84,0h-.42" transform="translate(0 0)"/></g></g></svg>