<?xml version="1.0" encoding="utf-8"?>
<!-- Generator: Adobe Illustrator 21.1.0, SVG Export Plug-In . SVG Version: 6.00 Build 0)  -->
<svg version="1.1"
	 id="svg4147" inkscape:version="0.91 r13725" sodipodi:docname="Ubisoft 2017 Horizontal.svg" xmlns:cc="http://creativecommons.org/ns#" xmlns:dc="http://purl.org/dc/elements/1.1/" xmlns:inkscape="http://www.inkscape.org/namespaces/inkscape" xmlns:rdf="http://www.w3.org/1999/02/22-rdf-syntax-ns#" xmlns:sodipodi="http://sodipodi.sourceforge.net/DTD/sodipodi-0.dtd" xmlns:svg="http://www.w3.org/2000/svg"
	 xmlns="http://www.w3.org/2000/svg" xmlns:xlink="http://www.w3.org/1999/xlink" x="0px" y="0px" viewBox="0 0 1000 318.6"
	 style="enable-background:new 0 0 1000 318.6;" xml:space="preserve">
<style type="text/css">
	.st0{fill:#CDCDD0;}
</style>
<sodipodi:namedview  bordercolor="#666666" borderopacity="1.0" id="base" inkscape:current-layer="layer1" inkscape:cx="379.79193" inkscape:cy="118.1944" inkscape:document-units="px" inkscape:pageopacity="0.0" inkscape:pageshadow="2" inkscape:window-height="705" inkscape:window-maximized="1" inkscape:window-width="1366" inkscape:window-x="-8" inkscape:window-y="-8" inkscape:zoom="0.49497475" pagecolor="#ffffff" showgrid="false" units="px">
	</sodipodi:namedview>
<g id="layer1" transform="translate(0,-733.79219)" inkscape:groupmode="layer" inkscape:label="Layer 1">
	<path id="SWIRL" inkscape:connector-curvature="0" class="st0" d="M306.9,892.9c-3.4-163.2-220.4-224-304-71.1
		c3.7,2.7,8.8,6.3,12.5,8.9c-6.3,13.4-10.7,27-13,40.7C0.9,880.4,0,889.6,0,899c0,84.6,68.8,153.4,153.5,153.4
		S306.9,983.7,306.9,899C306.9,896.9,306.9,894.9,306.9,892.9L306.9,892.9z M37.9,920.3c-2,16.6-0.7,21.7-0.7,23.7l-3.7,1.3
		c-1.5-2.7-4.9-12.4-6.5-25.3c-4-49.3,29.7-93.8,81-102.2c47-6.9,92.1,22.3,102.6,63.2l-3.7,1.3c-1.1-1.1-3-4.4-10.2-11.7
		C139.8,813.8,50.6,839.8,37.9,920.3z M183.9,947.9c-7.6,10.9-20.1,18-34.4,18c-23.2,0-41.9-18.7-41.9-41.9
		c0-22,17.1-40.1,38.9-41.7l0,0c13.5-0.6,26.2,6.8,32.1,18.5c6.5,12.8,4.2,28.5-6,39.1C176.5,942.7,180.2,945.3,183.9,947.9
		L183.9,947.9z M271.3,949.5c-22.2,50.2-67.8,76.5-116.4,75.8C61.5,1020.7,34.3,912.9,96.7,874l2.7,2.7c-1,1.5-4.8,4.3-10.5,15.7
		c-6.8,13.8-8.9,27.6-8.1,36.3c4.9,75.2,110.3,90.7,146.6,16.1c46.3-102-76.4-205.8-185.1-126.5l-2.4-2.4
		c28.6-44.9,84.6-64.9,138-51.5C259.4,785,303.3,870,271.3,949.5z"/>
	<path id="UBISOFT" inkscape:connector-curvature="0" class="st0" d="M455.9,833.1v70.8c0,28.2-17.3,49.2-48.8,49.2
		s-48.8-21-48.8-49.2v-70.8h25.6v68.8c0,17.1,8.1,26.9,23.2,26.9c15,0,23.2-9.8,23.2-26.9v-68.8H455.9z M551.3,916.9
		c0,20.5-16,35.1-41.9,35.1h-40.9v-118h39.3c22.7,0,37.8,10.9,37.8,28.5c0,13.4-6.2,21.5-15.6,25.3
		C542.8,892.6,551.3,901.1,551.3,916.9L551.3,916.9z M494.3,856.6v24.9h13.5c7.9,0,13.4-4.6,13.4-12.5s-5.5-12.5-13.4-12.5h-13.5
		V856.6L494.3,856.6z M508.5,929.5c10.9,0,17.3-5,17.3-14.8s-6.2-14.8-17.3-14.8h-14.2v29.7L508.5,929.5L508.5,929.5z M561.3,834.1
		H587v118h-25.6V834.1z M649,881.8c20.3,7,30.7,16.1,30.7,34.4c0,24.4-18.7,38-40.9,38c-20.5,0-36.1-9.1-42.7-25.9l20.5-15.1
		c3.7,10.7,13.4,17.1,23,17.1c8.5,0,14.5-4.6,14.5-12.1c0-7-4.6-11.5-21.5-17.6c-18.3-6.6-31.8-15.7-31.8-35.2
		c0-18.9,15.7-33.2,38.4-33.2c18.1,0,32.1,7.2,38.7,21.6l-20.5,14.1c-3.9-8.8-9.9-13.7-19.3-13.7c-7.8,0-13.5,4.2-13.5,10.2
		C624.8,871.3,631.3,875.5,649,881.8L649,881.8z M806.9,893c0,34.7-25,61-60.1,61c-36,0-60.1-25.8-60.1-57c0-20.3,7.9-35,19.5-44.4
		l-4-4c8.9-9.2,25.3-16.6,44.6-16.6C781.9,832.1,806.9,858.7,806.9,893L806.9,893z M780.9,893c0-21.3-13.5-36.7-34.1-36.7
		c-11.9,0-20.9,4.6-26.3,10.5l4,4c-6.2,5.2-11.8,12.5-11.8,25.5c0,17.8,12.7,33.5,34.1,33.5C767.5,929.7,780.9,914.4,780.9,893z
		 M843,858.4v27.3h50.1v19.5H843V952h-25.6v-118h80.9v24.3H843z M1000,858.4h-33.1V952h-25.6v-93.6H908v-24.3h91.9L1000,858.4
		L1000,858.4L1000,858.4z"/>
</g>
</svg>
