<?xml version="1.0" encoding="utf-8"?>
<!-- Generator: Adobe Illustrator 21.1.0, SVG Export Plug-In . SVG Version: 6.00 Build 0)  -->
<svg version="1.1"
	 id="svg11519" inkscape:version="0.91 r13725" sodipodi:docname="Disney.svg" xmlns:cc="http://creativecommons.org/ns#" xmlns:dc="http://purl.org/dc/elements/1.1/" xmlns:inkscape="http://www.inkscape.org/namespaces/inkscape" xmlns:rdf="http://www.w3.org/1999/02/22-rdf-syntax-ns#" xmlns:sodipodi="http://sodipodi.sourceforge.net/DTD/sodipodi-0.dtd" xmlns:svg="http://www.w3.org/2000/svg"
	 xmlns="http://www.w3.org/2000/svg" xmlns:xlink="http://www.w3.org/1999/xlink" x="0px" y="0px" viewBox="0 0 1000 413.8"
	 style="enable-background:new 0 0 1000 413.8;" xml:space="preserve">
<style type="text/css">
	.st0{fill:#CDCDD0;}
</style>
<sodipodi:namedview  bordercolor="#666666" borderopacity="1" gridtolerance="10" guidetolerance="10" id="namedview4708" inkscape:current-layer="svg11519" inkscape:cx="542.65617" inkscape:cy="114.78412" inkscape:pageopacity="0" inkscape:pageshadow="2" inkscape:window-height="705" inkscape:window-maximized="1" inkscape:window-width="1366" inkscape:window-x="-8" inkscape:window-y="-8" inkscape:zoom="0.35355339" objecttolerance="10" pagecolor="#ffffff" showgrid="false">
	</sodipodi:namedview>
<path id="path11521" inkscape:connector-curvature="0" class="st0" d="M864.2,179.9c-16.9,3.9-61.5,6.1-61.5,6.1l-5.5,17.6
	c0,0,22.1-1.9,38.3-0.3c0,0,5.2-0.4,5.8,5.8c0.3,6.4-0.4,13-0.4,13s-0.4,3.9-5.8,4.9c-6.2,1-48.1,2.9-48.1,2.9l-6.8,22.8
	c0,0-2.5,5.2,3.2,3.8c5.2-1.4,49.1-9.8,54.9-8.7c6.1,1.4,13,9.8,11,17.3c-2.3,9.1-46.2,37.1-72.8,35.3c0,0-14,0.9-25.7-18.1
	c-11.3-18.1,3.9-52,3.9-52s-6.8-15.9-1.7-21.7c0,0,2.9-2.5,11.6-3.2l10.8-22.2c0,0-12.3,0.7-19.5-8.2c-6.6-8.7-7.2-12.4-2-14.7
	c5.5-2.9,56.3-12,91.3-10.8c0,0,12.3-1.4,23.1,19.8c0,0,4.9,8.7-3.8,10.7 M732.5,265.5c-4.3,10.5-16.3,21.7-30.8,14.9
	c-14.7-6.9-38-54.3-38-54.3s-8.7-17.6-10.4-17c0,0-1.9-3.5-2.9,15.9c-1.4,19.2,0.3,56.6-7.7,62.6c-7.2,5.8-15.9,3.3-20.8-3.5
	c-4-6.8-5.8-23.1-3.5-51.6c2.6-28.5,9.1-58.8,17.3-68.2c8.7-9.5,15.6-2.6,18.2,0c0,0,11.1,10.1,29.9,40l3.2,5.5
	c0,0,17,28.5,18.8,28.3c0,0,1.4,1.4,2.6,0.3c1.7-0.4,1.2-9.7,1.2-9.7s-3.2-30.8-19.1-82.8c0,0-2.3-6.6-0.7-13
	c1.4-5.8,7.7-2.9,7.7-2.9s24,11.6,35.7,50.6c11.6,39,3.8,74.4-0.6,85 M614.9,165.3c-2.3,4-3.3,9.7-13.3,11.3
	c0,0-96.8,6.8-101.6,13.6c0,0-3.2,4,2,5.1c5.5,1.2,27.5,4,37.9,4.6c11.3,0,49.1,0.3,63,17.3c0,0,7.9,8.1,7.7,26.4
	c-0.3,18.8-3.6,25.4-11,32.2c-7.7,6.4-73.2,35.8-115.6-9.2c0,0-19.4-21.7,6.8-38.1c0,0,18.8-11.6,66.9,1.9c0,0,14.4,5.2,13.9,10.5
	c-0.9,5.8-12,11.6-28.2,11.3c-15.6-0.4-27.2-7.9-24.8-6.6c2.2,0.7-16.9-9.2-22.8-2.5c-5.8,6.4-4.3,10.1,1.4,14
	c14.4,8.4,71.2,5.3,88.1-13.6c0,0,6.8-7.7-3.5-13.9c-10.1-5.8-39.6-9.4-51-9.8c-10.8-0.6-51.4,0-57.5-10.5c0,0-5.8-7.5,0.6-28
	c6.6-21.7,53.9-30.1,74.4-31.8c0,0,56.3-2.3,66.9,9.2c0,0,1.4,2.6-0.3,6.5 M455.1,292.3c-6.8,5.1-21.2,2.9-25.4-2.9
	c-4-5.1-5.5-25-4.8-56.3c1-32.1,1.4-71.4,8.7-77.7c7.2-6.2,11.6-0.7,14.4,3.5c2.9,4.3,6.6,9.1,7.2,19.1c0.9,10.1,3.3,62.1,3.3,62.1
	s3.2,47.4-3.3,52.3 M469.5,123.3c-19.9,6.8-33.5,4.6-45.1-0.4c-5.1,9.1-8.1,11.8-11.8,12.4c-5.8,0.6-10.8-8.7-11.6-11.6
	c-1.2-2.2-3.9-6.1-0.6-14.9c-11.3-10.1-12.1-23.7-10.1-32.8c2.6-10.7,21.7-50.9,79.5-55.6c0,0,28.3-2,33.2,13h0.9
	c0,0,27.5,0,26.9,24.6c0,24.6-30.3,55.2-61.3,65.7 M495.2,53.4c-18.2,2.9-46.2,27.2-59.7,47.2c20.7,3.8,56.8,2.3,73-30.3
	C508.5,70.3,516.2,49.8,495.2,53.4 M415.4,69.3c-5.8,9.4-6.1,15-3.3,18.8c6.8-10.1,18.8-26,36.8-38.4
	C435,51.1,423.3,56.8,415.4,69.3 M907.6,291.3c-13.3,32.7-24.6,65.7-31.1,115.3c0,0-1.4,9.7-9.4,6.5c-7.9-2.9-20.9-15.9-23.8-34.2
	c-2.9-24,7.8-64.4,29.6-111c-6.4-10.1-10.8-25.1-7.2-46.2c0,0,5.8-39,44.8-74.3c0,0,4.6-3.9,7.2-2.6c3.2,1.4,1.9,13.9-0.7,20.2
	c-2.3,6.1-19.6,36.1-19.6,36.1s-10.8,20.5-7.8,36.6c20.5-31.5,67.2-95.4,96.1-75.1c18.3,13,18.3,54.9,4.6,79.2
	c-10.8,19.2-41.5,58.9-82.4,49.7 M968,193.2c-10.7,11.6-29.8,33.5-44.8,63.3c15.9-1.7,31.4-10.5,36.1-15
	c7.7-6.8,25.3-25.1,22.5-49.4C981.8,192.1,980.1,179.4,968,193.2 M320.7,308.4c-51.1,15.6-99.4,8.4-125.7,1.4
	c-0.7,10.7-1.9,15.2-3.6,16.9c-2,2.3-18.8,11.8-28-1.7c-4-6.5-6.1-18.2-7.2-28.9c-59.2-26.9-86.7-66.5-87.6-67.9
	c-1.4-1.4-14.9-15.5-1.4-32.8c12.6-15.6,54.2-31.4,91.5-37.6c1.4-31.8,4.9-56.3,9.4-67.2c5.3-13,12.1-1.4,18.2,7.2
	c4.9,6.5,7.9,34.4,8.2,56.6c24.3-1.2,39,0.6,66,5.8c35.5,6.1,59.2,24.3,57.4,44.8c-1.7,20.2-20.2,28.6-27.5,29.2
	c-7.2,0.6-18.8-4.8-18.8-4.8c-8.1-3.8-0.7-7.2,8.7-11.3c10.4-5.1,8.1-10.1,8.1-10.1c-3.8-11.6-49.8-19.2-95.6-19.2
	c0,25.3,1,67.2,1.7,91.6c32.1,6.1,56.1,4.8,56.1,4.8s117-3.3,120.3-78c3.6-74.8-117-146.5-205.9-169C76.3,14.9,26,31.4,21.7,33.6
	c-4.8,2.3-0.4,3.2-0.4,3.2s4.8,0.7,13.4,3.6s1.7,7.2,1.7,7.2C21.2,52.8,4.3,49.8,1,42.8c-3.3-6.8,2.2-13,8.7-22.1
	c6.1-9.4,13-9.1,13-9.1C132.5-26.7,266.5,42,266.5,42C391.9,105.2,413.3,179.6,411,208.5c-2,28.5-13,76.6-90.3,100 M79.4,205.1
	c-12.4,5.8-3.8,15-3.8,15c23.4,25,52,40.7,79.5,50.6c3.2-43.3,2.9-58.8,2.9-80.6C115.6,192.9,91,199.9,79.4,205.1"/>
</svg>
