<?xml version="1.0" standalone="no"?>
<!DOCTYPE svg PUBLIC "-//W3C//DTD SVG 20010904//EN"
 "http://www.w3.org/TR/2001/REC-SVG-20010904/DTD/svg10.dtd">
<svg version="1.0" xmlns="http://www.w3.org/2000/svg"
 width="400.000000pt" height="400.000000pt" viewBox="0 0 400.000000 400.000000"
 preserveAspectRatio="xMidYMid meet">
<metadata>
Created by potrace 1.11, written by Peter Selinger 2001-2013
</metadata>
<g transform="translate(0.000000,400.000000) scale(0.100000,-0.100000)"
fill="#000000" stroke="none">
<path d="M0 2000 l0 -2000 2000 0 2000 0 0 2000 0 2000 -2000 0 -2000 0 0
-2000z m1575 935 c254 -71 412 -258 450 -532 l7 -53 -165 0 c-178 0 -177 0
-177 55 0 84 -91 215 -181 260 -93 48 -247 56 -364 21 -113 -34 -194 -117
-215 -222 -38 -181 80 -298 370 -366 452 -106 499 -123 607 -222 66 -60 96
-105 122 -183 72 -218 7 -427 -173 -561 -135 -100 -265 -141 -473 -149 -219
-9 -373 25 -509 112 -150 96 -256 272 -266 440 l-3 50 161 3 c161 2 162 2 168
-20 3 -13 6 -31 6 -40 0 -40 44 -130 85 -176 108 -120 334 -154 530 -81 195
73 245 307 94 443 -62 56 -122 79 -349 135 -278 67 -443 122 -510 168 -153
107 -219 290 -176 485 43 192 226 368 446 427 111 30 112 30 290 26 116 -2
183 -8 225 -20z m1845 -139 l0 -163 -113 -6 c-255 -12 -390 -109 -449 -322
-21 -78 -22 -97 -26 -687 l-3 -608 -160 0 -159 0 0 960 0 960 160 0 160 0 0
-156 0 -156 50 76 c86 128 197 208 342 246 40 10 101 19 136 19 l62 1 0 -164z"/>
</g>
</svg>
