<?xml version="1.0" standalone="no"?>
<!DOCTYPE svg PUBLIC "-//W3C//DTD SVG 20010904//EN"
 "http://www.w3.org/TR/2001/REC-SVG-20010904/DTD/svg10.dtd">
<svg version="1.0" xmlns="http://www.w3.org/2000/svg"
 width="384.000000pt" height="384.000000pt" viewBox="0 0 384.000000 384.000000"
 preserveAspectRatio="xMidYMid meet">
<metadata>
Created by potrace 1.11, written by Peter Selinger 2001-2013
</metadata>
<g transform="translate(0.000000,384.000000) scale(0.100000,-0.100000)"
fill="#000000" stroke="none">
<path d="M0 1920 l0 -1920 1920 0 1920 0 0 1920 0 1920 -1920 0 -1920 0 0
-1920z m1454 909 c136 -24 260 -90 345 -186 77 -86 124 -196 146 -340 l7 -43
-161 0 -160 0 -6 38 c-25 144 -92 231 -215 278 -33 13 -75 18 -160 18 -146 0
-209 -22 -285 -98 -79 -79 -101 -197 -54 -292 47 -97 162 -152 464 -219 291
-65 389 -108 485 -212 86 -94 115 -185 108 -347 -4 -90 -8 -108 -37 -166 -67
-129 -216 -240 -391 -290 -94 -27 -311 -38 -420 -21 -95 15 -196 50 -267 93
-75 45 -164 137 -202 208 -33 61 -71 192 -71 242 l0 28 159 0 158 0 6 -51 c26
-221 273 -339 547 -263 109 30 185 99 209 189 15 54 14 82 -5 144 -32 110
-127 168 -364 226 -415 100 -515 139 -603 234 -71 77 -98 145 -104 266 -10
165 35 273 164 395 164 157 420 218 707 169z m1821 -145 l0 -159 -115 -6
c-237 -13 -357 -102 -417 -306 -15 -51 -17 -130 -21 -650 l-3 -593 -155 0
-154 0 2 923 3 922 150 0 150 0 3 -149 3 -148 40 62 c75 117 196 207 319 240
46 12 167 29 185 25 6 -1 10 -63 10 -161z"/>
</g>
</svg>
